<svg xmlns="http://www.w3.org/2000/svg" width="462.706" height="133.713" viewBox="0 0 462.706 133.713"><g transform="translate(-0.25 133.713)"><path d="M94-132.6c-3,.7-8.5,2.3-12.2,3.5-6.3,2.1-6.9,2.5-8.8,6.8a33.632,33.632,0,0,0-2,5.3c0,.4,1.7.4,3.8-.1,5.8-1.3,24.4-4,24.9-3.6.5.6-13.2,31.1-18.3,40.7-3,5.6-4.5,7.5-5.9,7.4-1.1-.1-6.6-.7-12.1-1.4-16.4-1.9-27.7.5-38.9,8.5C6.8-52.9-3.3-33.8,1.4-21.7,3.2-17,8.8-10.7,13.3-8.3c4.7,2.4,12.9,2.8,18.8.9,12.2-4,23.1-14,38.5-35.2l9.5-13.1,7.6-.7c10.7-.9,26.1-.8,26.7.2.3.5.8,10.4,1.2,22.1.5,14.7,1,21,1.8,20.7.6-.3,6-2.6,11.9-5.3l10.9-4.8-.6-4c-1.4-9.6-4.7-38.8-7-61-2.9-27.5-3.9-33.2-6.9-37.7-3.7-5.4-7.9-7.2-17.6-7.5A71.347,71.347,0,0,0,94-132.6Zm18,51c1.1,8.8,2,16.5,2,17.2,0,.8-2.4.5-7.8-1.1-4.4-1.3-10.4-2.8-13.4-3.4l-5.6-1.2L97.4-90.3l10.1-20.2,1.3,6.5C109.5-100.4,110.9-90.3,112-81.6ZM69.4-55.8c-.4.7-5.5,8.4-11.2,17C47.2-22.2,48-22.9,38.5-21.5c-5.2.7-12.4-2.7-14.5-7-1.9-4-1.8-12.9.3-19.1,1.6-4.8,2.1-5.2,5.5-5.7,3.5-.6,23.2-2.4,33.2-3,2.5-.2,5.1-.4,5.8-.5C69.6-56.9,69.8-56.5,69.4-55.8Z"/><path d="M317.5-106.3c-5.5,1.4-10.1,2.6-10.3,2.7-.1.2,1.5,2.1,3.7,4.4,3.6,3.8,16.1,23.3,16.1,25.1,0,.5-5.4,6.1-12,12.5C308.3-55.2,303-50,303.2-50s3.3-.9,7-1.9c5.3-1.5,8.2-3.2,13.9-8,4-3.3,7.6-5.8,8-5.5,1.1.7,4.5,8.5,5.4,12.3a21.335,21.335,0,0,0,.8,3.1c.1,0,3.6-1.5,7.7-3.3,7.1-3,7.5-3.3,7.2-6.2a62.892,62.892,0,0,0-6.3-20.4L344-85.3l8.7-9.4c4.7-5.1,8.4-9.5,8.2-9.7a44.237,44.237,0,0,0-7-1.1l-6.5-.7-3.9,5.6a45.656,45.656,0,0,1-4.1,5.6,27.319,27.319,0,0,1-2.5-3.7c-2.7-4.4-7.8-10.3-8.8-10.2C327.8-108.8,323-107.7,317.5-106.3Z"/><path d="M174.5-102.9a44.044,44.044,0,0,1-6.7,3.8c-.5.1-.8-1.5-.8-3.4s-.3-3.5-.6-3.5-4.8,1.4-10,3.2L147-99.6v22.8c0,16.4.3,22.8,1.1,22.8.7,0,5.2-.5,10-1.2l8.9-1.2V-72.9c0-15.9.1-16.7,2.3-19.5,3-3.7,4.2-2.9,6.2,3.6,1.9,6.5,1.9,17.9,0,28.8-.8,4.7-1.5,8.7-1.5,8.9,0,.8,3.8-1.3,11.6-6.4,4.6-3.1,8.4-5.7,8.4-5.9s.7-6.5,1.5-14c2.3-20.8.3-25.9-11.1-28.4C180.9-106.5,179.9-106.2,174.5-102.9Z"/><path d="M232-102.9c-3.5,2.1-6.6,3.7-6.8,3.5a10.2,10.2,0,0,1-.4-3.5c-.1-1.7-.4-3.1-.7-3.1s-5,1.5-10.4,3.2l-9.9,3.3.6,4.4c.3,2.4.6,12.8.6,23.2v18.8l3-.9a77.647,77.647,0,0,1,10-1.6l7-.7V-73.5c0-16.6.1-17.2,2.3-19.3a11.406,11.406,0,0,1,2.9-2.2c.4,0,1.4,2.4,2.4,5.2,2.2,6.5,2.3,20.8.1,31.6-1.7,8.7-2.3,8.6,10.3.6l8.7-5.5.7-7.7c1.8-20.3,1.9-24.2.6-27.2-1.6-3.8-5.5-6.6-10.7-7.8C238.7-106.6,237.7-106.4,232-102.9Z"/><path d="M269.5-100.9a57.673,57.673,0,0,0-6.9,6.6c-.4.8-.7,7.7-.4,15.2.3,11.3.7,14.2,2.3,17,3.2,5.5,6.7,7.5,13.9,7.9,10.9.7,17.6-2.9,22.1-11.9a39.616,39.616,0,0,0,2.5-5.4c0-.3-1.7.4-3.7,1.5-5.5,2.9-11.1,2.6-15.3-.9l-3.4-2.8,6.5-.7a45.583,45.583,0,0,0,11.7-3.1c4.8-2.2,5.1-2.6,5.8-7.2,2.6-16.2-.5-19.6-19.1-20.7l-10-.7Zm17,9.2c2,1.7,2.8,3.5,3.2,7l.6,4.7H278.8l.6-3.1a49.382,49.382,0,0,0,.6-7c0-3.2.4-3.9,1.9-3.9A8.639,8.639,0,0,1,286.5-91.7Z"/><path d="M370.6-100.3l-6.8,5.7.4,15.1c.3,14.9.3,15.2,3.2,18.9,3.9,5.2,8.4,6.9,16.7,6.4,8.5-.5,13.6-3.7,17.9-11.1,4-6.9,3.8-8.2-.6-5.2-5.5,3.7-11.4,3.4-16-.8l-3.5-3.2,6.6-.2a28.828,28.828,0,0,0,11.9-2.6l5.3-2.5,1.2-7.6c1.8-12.3-1.1-15.9-14-17.6C378.9-106.8,378.2-106.7,370.6-100.3Zm17.1,7.8c2.5,1.7,4.9,8.5,4,10.9-.5,1.2-2,1.6-5.8,1.6h-5.2l.7-4.6c.3-2.6.6-5.7.6-7C382-94.4,384.4-94.8,387.7-92.5Z"/><path d="M422.8-102.8l-8.8,3v46.7l3-.9a77.648,77.648,0,0,1,10-1.6l7-.7V-73.5c0-16.6.1-17.2,2.3-19.3a11.4,11.4,0,0,1,2.9-2.2c.3,0,1.4,2.1,2.4,4.7,2.3,5.8,2.4,23.1.1,33.1-1.7,7.5-2.1,7.5,10.3-.4l8.6-5.4,1.2-11.4c1.7-16.2,1.6-21.5-.8-25.3-2.2-3.8-4.3-5-9.8-5.9-3.4-.5-4.9-.1-10.6,3.1L434-98.8v-3.6c0-2.3-.5-3.6-1.2-3.5A80.321,80.321,0,0,0,422.8-102.8Z"/><path d="M171.5-44.4c-4.9,1.2-6.4,2-7.8,4.3a19.538,19.538,0,0,0-1.7,3.4c0,.2,2.1,0,4.6-.5,2.5-.6,4.7-.8,5-.6.9,1-2.1,18-3.3,18.5-2.6,1-6.7-.9-10.6-4.8a25.7,25.7,0,0,0-4.2-3.7c-.1.2-.5,1.9-.9,3.8a11.354,11.354,0,0,0,5.8,11.2c3.4,1.5,9.3-1.6,12.6-6.6,2.4-3.6,2.7-3.8,6.8-3.3,4.3.5,9.2,3.2,10,5.5.6,2-5.3,1.4-8.1-.8l-2.5-2-1.6,2.5a5.3,5.3,0,0,0-1,3.9c.8,2.2,7.6,3.9,10.6,2.7,3.7-1.4,7.8-6.8,7.8-10.2,0-3.2-3.6-5.7-8.9-6.1a12.576,12.576,0,0,1-3.1-.4,40.085,40.085,0,0,1,4.4-2.8,22.96,22.96,0,0,0,6.6-6.1c2.1-3.4,2.1-3.7.5-5.5C188.9-46,181.6-46.8,171.5-44.4Zm15,6.8,2.9,1.2-6.9,4.5c-3.9,2.5-7.5,4.8-8.1,5.2-1.4.8.6-10.5,2-11.5C178.1-39.4,183.2-39.1,186.5-37.6Z"/><path d="M342.8-40.3c-7.2,7.8-6.3,15.2,2,16.9,4.2.8,4.7,1.9,2.8,4.9-2.8,4.2-5.7,4.1-14.9-.4a72.524,72.524,0,0,0-9-4.1c-2,0-.3,4,3.1,7.2,4.5,4.3,7.2,5.8,10.7,5.8,5.6,0,16.7-8.9,18.1-14.5.6-2.6-.9-5.5-3-5.5a28.215,28.215,0,0,1-4.8-1.1c-3.1-.8-3.8-1.5-3.8-3.4s.5-2.5,2.3-2.5a8.571,8.571,0,0,1,4.3,1.5,7,7,0,0,0,2.8,1.5c1.1,0-.1-5.9-1.5-7.7C350-43.9,345.6-43.2,342.8-40.3Z"/><path d="M276.2-39.3a12.418,12.418,0,0,0-5,4.9c-2,4.3-.9,5.6,8,9.6,3.7,1.7,6.8,3.4,6.8,3.9,0,1.5-10.5,5.9-12.7,5.3-3-.8-3.8-3.9-1.9-6.9,1.9-2.9,1.7-3-2.8-1.1-5.4,2.2-5.7,8.9-.6,11.6,4.3,2.3,8.7,1.2,14-3.5,2.8-2.5,5.4-4.5,5.8-4.5a8.742,8.742,0,0,1,3,1.6c2.4,1.6,2.8,4.4,1.2,7.5-1.5,2.8,0,2.3,3.8-1.2,3.9-3.6,4.1-6.2.6-9.4L293.7-24l4.5-1.9a41.487,41.487,0,0,1,8.7-2.7c4.2-.7,4.3-.6,3.2,1.4-1.5,2.8-1.4,3.2.7,3.2,4.3,0,5.7-5.4,1.8-7.1-3-1.4-11.6.9-16.8,4.4l-3.5,2.4-3.7-1.9-3.8-2,2.1-2.2c2.8-2.9,2.7-7.1-.1-9C283.9-41.4,280.4-41.4,276.2-39.3Zm5.3,2.5c1.4.6,2.6,1.8,2.6,2.7.2,1.9-.2,4.5-.6,4.9-.7.7-8.5-4.9-8.5-6.1C275-38.2,277.3-38.7,281.5-36.8Z"/><path d="M378-34c-1.4,2.7.4,5.2,3.4,4.8,3.1-.4,3-6.2-.1-6.6A3.031,3.031,0,0,0,378-34Z"/><path d="M408-35.1c-2.5.7-2.5.8-2.8,13l-.3,12.3,2.8-.7a14.793,14.793,0,0,0,2.9-.8c.1-.1.5-1,1.1-2,.9-1.7,1.2-1.7,4.1.8l3.1,2.6,1.7-2.6c1.6-2.4,1.6-2.7-.1-4.5a5.775,5.775,0,0,0-3.2-2c-1,0-.8-.9.7-3.7,2.2-4.2,2-4.8-1.3-3.9-1.9.4-2.7,1.6-3.6,5.1-.6,2.5-1.4,4.5-1.8,4.5-.7,0,.3-14.9,1.3-17.3C413.3-36.1,412.3-36.3,408-35.1Z"/><path d="M456.2-35.1c-.8.4-1.2,1.9-1,3.2.4,2.9,4.5,3.4,6.1.7C463.2-34.2,459.4-37.2,456.2-35.1Z"/><path d="M366-26.1c-1.4.9-2.1,1.1-1.6.3.8-1.3-.6-1.5-4.1-.6-2.1.6-2.3,1.2-2.3,8.4v7.7l3.2-.6c3-.6,3.1-.8,3.2-6,.1-3.6.6-5.6,1.4-5.9,1.1-.3,1.3,1,1,6.2a60.5,60.5,0,0,0,0,6.6,21.214,21.214,0,0,0,3.2-1.7c2.4-1.4,3-2.6,3.6-7C374.5-26.2,371.2-29.5,366-26.1Z"/><path d="M390.8-25.9c-2.3,1.7-2.8,2.9-2.8,6.3,0,5.7,2.2,8.6,6.6,8.6a7.935,7.935,0,0,0,5.4-2c2.4-2.4,2.8-4.9.5-3-2.4,2-5.5.3-5.5-3.2,0-2.3.3-2.8,1.3-2,1.3,1.1,6.7.5,6.7-.8,0-1.9-3.7-5-6.5-5.5A6.547,6.547,0,0,0,390.8-25.9Z"/><path d="M447.2-26.4c-.6,1.1-1.1,1.3-1.6.5a4.241,4.241,0,0,0-3.1-1.1c-2,0-2.5.7-3.1,3.5-.7,4,.1,9.1,1.7,11.2,1.9,2.2,6.6,1.6,7.2-.9.4-1.4.1-2.6-.8-3.1-1.7-.9-1.9-2.5-.6-4.6.8-1.2,1.2-1.2,2.5-.2,1.3,1.1,1.6.8,2.4-2.1a10.035,10.035,0,0,0,.5-4.1C451.5-28.6,448.1-28,447.2-26.4Z"/><path d="M215.8-23.3c-3.5,4.6-3.9,10.7-.7,12.4,1.7.9,2.5.7,4.4-1.1l2.3-2.1.4,3.6c.5,4.3-.5,5.2-3.6,3.1-2.2-1.4-2.5-1.3-3.9.2-3.2,3.6-.7,7.2,5,7.2,5.2,0,8.1-4.7,8.9-14.5.7-9.1-.2-10.8-6.6-11.9C218.8-27,218.2-26.7,215.8-23.3Zm5.6,5.5C219.5-14,219-14.3,219-19c0-3.7.1-3.9,1.9-2.8S222.7-20.4,221.4-17.8Z"/><path d="M233.7-23.3c-3.4,4.9-3.7,10.7-.6,12.4,1.7.9,2.5.7,4.5-1.2l2.4-2.2v4.1c0,4.5-1.6,5.5-4,2.7-1.2-1.4-1.5-1.4-3.1.1-3.9,3.5-1.3,7.4,5,7.4,4.9,0,7.7-4.8,8.6-14.5.8-9.2-.1-10.8-6.6-12C236.6-27.1,236.2-26.9,233.7-23.3Zm5.9,2.8c.3.8-.1,2.4-1,3.7-1.6,2.2-1.6,2.2-1.6-1.5S238.6-23.3,239.6-20.5Z"/><path d="M379.3-25.7c-3.4,1.1-5.3,3.7-2.8,3.7,1.2,0,1.5,1.4,1.5,6.1,0,5.2.2,6,1.6,5.5a12.807,12.807,0,0,1,3.5-.6c1.7,0,1.9-.8,1.9-8C385-27.6,385.1-27.6,379.3-25.7Z"/><path d="M424.7-25.2c-2,2.2-2.3,10-.4,12.6,1.3,1.7,6.5,2.5,8.6,1.2a8.5,8.5,0,0,0,2.2-2.8c.9-1.8.8-1.9-1-1.3a5.2,5.2,0,0,1-3.3-.1c-.8-.5.1-1.2,2.3-1.9,2.6-.9,3.5-1.8,3.7-3.9a6.141,6.141,0,0,0-.9-4.2C434.2-27.7,426.7-27.4,424.7-25.2Zm7.1,4.5c.2,1-.3,1.7-1.2,1.7-1,0-1.6-.9-1.6-2.1C429-23.5,431.3-23.2,431.8-20.7Z"/><path d="M457.1-25.6c-3.7,1.3-5.4,3.6-2.7,3.6,1.3,0,1.6,1.2,1.6,6.1,0,5.2.2,6,1.6,5.5a11.4,11.4,0,0,1,3-.6c1.1,0,1.4-1.8,1.4-8,0-4.4-.3-8-.7-7.9A23.593,23.593,0,0,0,457.1-25.6Z"/><path d="M195.7-25.3c-1,1-.8,9.8.2,12.6a4.091,4.091,0,0,1-.5,4.5,4.561,4.561,0,0,0-.8,3.6c.7,1.9,7.6,4.1,9.8,3.3,3-1.2,5.4-6.8,6.1-14.1.3-3.9.9-7.9,1.1-8.9.4-1.4-.1-1.7-2.9-1.7-3,0-3.6.4-5,3.7l-1.5,3.8-.1-3.8c-.1-3.4-.3-3.7-2.9-3.7C197.6-26,196-25.7,195.7-25.3ZM204-12c0,5,0,5-2.7,4.4-4.1-1-4.5-1.4-2.7-3.1a48.367,48.367,0,0,0,3.1-3.9,8.283,8.283,0,0,1,1.9-2.4C203.8-17,204-14.7,204-12Z"/></g></svg>